<svg width="32" height="32" viewBox="0 0 32 32" fill="none" xmlns="http://www.w3.org/2000/svg">
<path d="M20 30.3334H12C4.75996 30.3334 1.66663 27.2401 1.66663 20.0001V12.0001C1.66663 4.76008 4.75996 1.66675 12 1.66675H20C27.24 1.66675 30.3333 4.76008 30.3333 12.0001V20.0001C30.3333 27.2401 27.24 30.3334 20 30.3334ZM12 3.66675C5.85329 3.66675 3.66663 5.85341 3.66663 12.0001V20.0001C3.66663 26.1467 5.85329 28.3334 12 28.3334H20C26.1466 28.3334 28.3333 26.1467 28.3333 20.0001V12.0001C28.3333 5.85341 26.1466 3.66675 20 3.66675H12Z" fill="#B5B5B7"/>
<path d="M11.5734 20.4401C11.0134 20.4401 10.4934 20.3068 10.04 20.0534C8.93337 19.4268 8.33337 18.1867 8.33337 16.5601V3.25342C8.33337 2.70675 8.78671 2.25342 9.33337 2.25342C9.88004 2.25342 10.3334 2.70675 10.3334 3.25342V16.5601C10.3334 17.4268 10.5867 18.0667 11.0267 18.3067C11.4934 18.5734 12.2134 18.4401 13 17.9734L14.76 16.9201C15.48 16.4934 16.5067 16.4934 17.2267 16.9201L18.9867 17.9734C19.7867 18.4534 20.5067 18.5734 20.96 18.3067C21.4 18.0534 21.6534 17.4134 21.6534 16.5601V3.25342C21.6534 2.70675 22.1067 2.25342 22.6534 2.25342C23.2 2.25342 23.6534 2.70675 23.6534 3.25342V16.5601C23.6534 18.1867 23.0534 19.4268 21.9467 20.0534C20.84 20.6801 19.3867 20.5468 17.96 19.6934L16.2 18.6401C16.12 18.5867 15.8667 18.5867 15.7867 18.6401L14.0267 19.6934C13.2 20.1868 12.3467 20.4401 11.5734 20.4401Z" fill="#B5B5B7"/>
<path d="M20 30.3334H12C4.75996 30.3334 1.66663 27.2401 1.66663 20.0001V12.0001C1.66663 4.76008 4.75996 1.66675 12 1.66675H20C27.24 1.66675 30.3333 4.76008 30.3333 12.0001V20.0001C30.3333 27.2401 27.24 30.3334 20 30.3334ZM12 3.66675C5.85329 3.66675 3.66663 5.85341 3.66663 12.0001V20.0001C3.66663 26.1467 5.85329 28.3334 12 28.3334H20C26.1466 28.3334 28.3333 26.1467 28.3333 20.0001V12.0001C28.3333 5.85341 26.1466 3.66675 20 3.66675H12Z" fill="#B5B5B7"/>
<path d="M11.5734 20.4401C11.0134 20.4401 10.4934 20.3068 10.04 20.0534C8.93337 19.4268 8.33337 18.1867 8.33337 16.5601V3.25342C8.33337 2.70675 8.78671 2.25342 9.33337 2.25342C9.88004 2.25342 10.3334 2.70675 10.3334 3.25342V16.5601C10.3334 17.4268 10.5867 18.0667 11.0267 18.3067C11.4934 18.5734 12.2134 18.4401 13 17.9734L14.76 16.9201C15.48 16.4934 16.5067 16.4934 17.2267 16.9201L18.9867 17.9734C19.7867 18.4534 20.5067 18.5734 20.96 18.3067C21.4 18.0534 21.6534 17.4134 21.6534 16.5601V3.25342C21.6534 2.70675 22.1067 2.25342 22.6534 2.25342C23.2 2.25342 23.6534 2.70675 23.6534 3.25342V16.5601C23.6534 18.1867 23.0534 19.4268 21.9467 20.0534C20.84 20.6801 19.3867 20.5468 17.96 19.6934L16.2 18.6401C16.12 18.5867 15.8667 18.5867 15.7867 18.6401L14.0267 19.6934C13.2 20.1868 12.3467 20.4401 11.5734 20.4401Z" fill="#B5B5B7"/>
</svg>
