<svg width="20" height="20" viewBox="0 0 20 20" fill="none" xmlns="http://www.w3.org/2000/svg">
<path d="M6.6665 4.79175C6.32484 4.79175 6.0415 4.50841 6.0415 4.16675V1.66675C6.0415 1.32508 6.32484 1.04175 6.6665 1.04175C7.00817 1.04175 7.2915 1.32508 7.2915 1.66675V4.16675C7.2915 4.50841 7.00817 4.79175 6.6665 4.79175Z" fill="#B5B5B7"/>
<path d="M13.3335 4.79175C12.9918 4.79175 12.7085 4.50841 12.7085 4.16675V1.66675C12.7085 1.32508 12.9918 1.04175 13.3335 1.04175C13.6752 1.04175 13.9585 1.32508 13.9585 1.66675V4.16675C13.9585 4.50841 13.6752 4.79175 13.3335 4.79175Z" fill="#B5B5B7"/>
<path d="M7.08333 12.0832C6.86667 12.0832 6.65 11.9916 6.49167 11.8416C6.34167 11.6832 6.25 11.4749 6.25 11.2499C6.25 11.1416 6.275 11.0332 6.31667 10.9332C6.35833 10.8332 6.41667 10.7416 6.49167 10.6583C6.8 10.3499 7.35833 10.3499 7.675 10.6583C7.825 10.8166 7.91667 11.0332 7.91667 11.2499C7.91667 11.2999 7.90834 11.3583 7.9 11.4166C7.89167 11.4666 7.875 11.5166 7.85 11.5666C7.83333 11.6166 7.80833 11.6666 7.775 11.7166C7.74167 11.7582 7.70833 11.7999 7.675 11.8416C7.51667 11.9916 7.3 12.0832 7.08333 12.0832Z" fill="#B5B5B7"/>
<path d="M9.99984 12.0834C9.8915 12.0834 9.78317 12.0584 9.68317 12.0168C9.57484 11.9751 9.4915 11.9168 9.40817 11.8418C9.25817 11.6834 9.1665 11.4751 9.1665 11.2501C9.1665 11.1418 9.19151 11.0334 9.23317 10.9334C9.27484 10.8334 9.33317 10.7418 9.40817 10.6584C9.4915 10.5834 9.57484 10.5251 9.68317 10.4834C9.99151 10.3584 10.3582 10.4251 10.5915 10.6584C10.7415 10.8168 10.8332 11.0334 10.8332 11.2501C10.8332 11.3001 10.8248 11.3584 10.8165 11.4168C10.8082 11.4668 10.7915 11.5168 10.7665 11.5668C10.7498 11.6168 10.7248 11.6668 10.6915 11.7168C10.6665 11.7584 10.6248 11.8001 10.5915 11.8418C10.4332 11.9918 10.2165 12.0834 9.99984 12.0834Z" fill="#B5B5B7"/>
<path d="M7.08333 15.0001C6.975 15.0001 6.86667 14.9752 6.76667 14.9335C6.65834 14.8918 6.56667 14.8335 6.49167 14.7585C6.41667 14.6835 6.35833 14.5918 6.31667 14.4835C6.275 14.3835 6.25 14.2751 6.25 14.1668C6.25 14.0585 6.275 13.9501 6.31667 13.8501C6.35833 13.7418 6.41667 13.6502 6.49167 13.5752C6.56667 13.5002 6.65834 13.4418 6.76667 13.4001C6.96667 13.3168 7.2 13.3085 7.4 13.4001C7.50833 13.4418 7.6 13.5002 7.675 13.5752C7.75 13.6502 7.80833 13.7418 7.85 13.8501C7.89166 13.9501 7.91667 14.0585 7.91667 14.1668C7.91667 14.2751 7.89166 14.3835 7.85 14.4835C7.80833 14.5918 7.75 14.6835 7.675 14.7585C7.6 14.8335 7.50833 14.8918 7.4 14.9335C7.3 14.9752 7.19167 15.0001 7.08333 15.0001Z" fill="#B5B5B7"/>
<path d="M17.0832 8.19995H2.9165C2.57484 8.19995 2.2915 7.91662 2.2915 7.57495C2.2915 7.23328 2.57484 6.94995 2.9165 6.94995H17.0832C17.4248 6.94995 17.7082 7.23328 17.7082 7.57495C17.7082 7.91662 17.4248 8.19995 17.0832 8.19995Z" fill="#B5B5B7"/>
<path d="M14.9998 19.7917C14.0248 19.7917 13.0998 19.4417 12.3915 18.8C12.0915 18.55 11.8248 18.2333 11.6082 17.8667C11.2415 17.2667 11.0415 16.5583 11.0415 15.8333C11.0415 13.65 12.8165 11.875 14.9998 11.875C16.1332 11.875 17.2165 12.3667 17.9665 13.2167C18.6082 13.95 18.9582 14.875 18.9582 15.8333C18.9582 16.5583 18.7582 17.2667 18.3832 17.875C17.6832 19.0583 16.3832 19.7917 14.9998 19.7917ZM14.9998 13.125C13.5082 13.125 12.2915 14.3417 12.2915 15.8333C12.2915 16.325 12.4248 16.8083 12.6832 17.225C12.8248 17.475 13.0082 17.6833 13.2082 17.8583C13.7082 18.3083 14.3332 18.5417 14.9998 18.5417C15.9582 18.5417 16.8248 18.05 17.3165 17.2333C17.5748 16.8083 17.7082 16.3333 17.7082 15.8333C17.7082 15.1833 17.4665 14.55 17.0332 14.0417C16.5165 13.4583 15.7748 13.125 14.9998 13.125Z" fill="#B5B5B7"/>
<path d="M14.5251 17.2834C14.3667 17.2834 14.2084 17.225 14.0834 17.1L13.2584 16.275C13.0167 16.0334 13.0167 15.6334 13.2584 15.3917C13.5001 15.15 13.9001 15.15 14.1417 15.3917L14.5417 15.7917L15.8751 14.5584C16.1251 14.325 16.5251 14.3417 16.7584 14.5917C16.9917 14.8417 16.9751 15.2417 16.7251 15.475L14.9501 17.1167C14.8251 17.225 14.6751 17.2834 14.5251 17.2834Z" fill="#B5B5B7"/>
<path d="M12.8083 18.9584H6.66667C3.625 18.9584 1.875 17.2084 1.875 14.1667V7.08342C1.875 4.04175 3.625 2.29175 6.66667 2.29175H13.3333C16.375 2.29175 18.125 4.04175 18.125 7.08342V13.6334C18.125 13.8917 17.9667 14.1251 17.7167 14.2167C17.475 14.3084 17.2 14.2418 17.025 14.0418C16.5083 13.4584 15.7667 13.1251 14.9917 13.1251C13.5 13.1251 12.2833 14.3417 12.2833 15.8334C12.2833 16.3251 12.4167 16.8084 12.675 17.2251C12.8167 17.4751 13 17.6834 13.2 17.8584C13.4 18.0251 13.475 18.3001 13.3833 18.5501C13.3083 18.7918 13.075 18.9584 12.8083 18.9584ZM6.66667 3.54175C4.28333 3.54175 3.125 4.70008 3.125 7.08342V14.1667C3.125 16.5501 4.28333 17.7084 6.66667 17.7084H11.5167C11.2083 17.1417 11.0417 16.5001 11.0417 15.8334C11.0417 13.6501 12.8167 11.8751 15 11.8751C15.6583 11.8751 16.3083 12.0418 16.875 12.3501V7.08342C16.875 4.70008 15.7167 3.54175 13.3333 3.54175H6.66667Z" fill="#B5B5B7"/>
</svg>
