<svg width="24" height="25" viewBox="0 0 24 25" fill="none" xmlns="http://www.w3.org/2000/svg">
<path d="M12 16.8299C9.61 16.8299 7.67 14.8899 7.67 12.4999C7.67 10.1099 9.61 8.16992 12 8.16992C14.39 8.16992 16.33 10.1099 16.33 12.4999C16.33 14.8899 14.39 16.8299 12 16.8299ZM12 9.66992C10.44 9.66992 9.17 10.9399 9.17 12.4999C9.17 14.0599 10.44 15.3299 12 15.3299C13.56 15.3299 14.83 14.0599 14.83 12.4999C14.83 10.9399 13.56 9.66992 12 9.66992Z" fill="#B5B5B7"/>
<path d="M12 21.52C8.24 21.52 4.69 19.32 2.25 15.5C1.19 13.85 1.19 11.16 2.25 9.49998C4.7 5.67998 8.25 3.47998 12 3.47998C15.75 3.47998 19.3 5.67998 21.74 9.49998C22.8 11.15 22.8 13.84 21.74 15.5C19.3 19.32 15.75 21.52 12 21.52ZM12 4.97998C8.77 4.97998 5.68 6.91998 3.52 10.31C2.77 11.48 2.77 13.52 3.52 14.69C5.68 18.08 8.77 20.02 12 20.02C15.23 20.02 18.32 18.08 20.48 14.69C21.23 13.52 21.23 11.48 20.48 10.31C18.32 6.91998 15.23 4.97998 12 4.97998Z" fill="#B5B5B7"/>
</svg>
