<svg width="32" height="32" viewBox="0 0 32 32" fill="none" xmlns="http://www.w3.org/2000/svg">
<path d="M22.6666 30.3334H9.33329C3.45329 30.3334 1.66663 28.5467 1.66663 22.6667V9.33341C1.66663 3.45341 3.45329 1.66675 9.33329 1.66675H11.3333C13.6666 1.66675 14.4 2.42675 15.3333 3.66675L17.3333 6.33341C17.7733 6.92008 17.84 7.00008 18.6666 7.00008H22.6666C28.5466 7.00008 30.3333 8.78675 30.3333 14.6667V22.6667C30.3333 28.5467 28.5466 30.3334 22.6666 30.3334ZM9.33329 3.66675C4.57329 3.66675 3.66663 4.57341 3.66663 9.33341V22.6667C3.66663 27.4267 4.57329 28.3334 9.33329 28.3334H22.6666C27.4266 28.3334 28.3333 27.4267 28.3333 22.6667V14.6667C28.3333 9.90675 27.4266 9.00008 22.6666 9.00008H18.6666C16.96 9.00008 16.4 8.41341 15.7333 7.53341L13.7333 4.86675C13.04 3.94675 12.84 3.66675 11.3333 3.66675H9.33329Z" fill="#B5B5B7"/>
</svg>
