<svg width="382" height="54" viewBox="0 0 382 54" fill="none" xmlns="http://www.w3.org/2000/svg">
<path d="M0.914001 1.30591H8.44142V41.2656H0.914001V1.30591Z" fill="black"/>
<path d="M16.5427 12.7936H23.4125V16.3614H23.8603C24.7557 14.9902 25.959 13.8989 27.4561 13.1014C28.9672 12.3039 30.6461 11.9121 32.507 11.9121C34.5218 11.9121 36.2707 12.3878 37.7538 13.3392C39.2369 14.2907 40.3003 15.4799 40.9299 16.9351C41.8533 15.452 43.1265 14.2347 44.7495 13.3113C46.3726 12.3878 48.2754 11.9121 50.4721 11.9121C53.7041 11.9121 56.1666 12.9055 57.8736 14.8923C59.5665 16.8791 60.42 19.5654 60.42 22.9514V41.2522H53.1584V24.2946C53.1584 22.5037 52.7387 21.1325 51.8992 20.1671C51.0597 19.2017 49.8984 18.712 48.4153 18.712C46.5125 18.712 45.0014 19.4675 43.8681 20.9646C42.7348 22.4757 42.1611 24.4485 42.1611 26.911V41.2522H34.8436V24.2946C34.8436 22.5037 34.4098 21.1325 33.5284 20.1671C32.6469 19.2017 31.4157 18.712 29.8206 18.712C28.0297 18.712 26.5886 19.4675 25.4973 20.9646C24.4059 22.4757 23.8463 24.4485 23.8463 26.911V41.2522H16.5427V12.7936Z" fill="black"/>
<path d="M67.1638 12.7939H74.0336V16.2498H74.4814C75.2649 15.0185 76.3982 13.9972 77.8813 13.1437C79.3644 12.3042 81.0853 11.8984 83.0162 11.8984C85.5906 11.8984 87.9132 12.542 90.0259 13.8293C92.1246 15.1165 93.7756 16.9074 94.9649 19.216C96.1542 21.5246 96.7558 24.127 96.7558 27.0232C96.7558 29.9614 96.1542 32.5778 94.9649 34.8585C93.7756 37.1531 92.1246 38.93 90.0259 40.2172C87.9272 41.5044 85.5906 42.148 83.0162 42.148C81.0853 42.148 79.3644 41.7423 77.8533 40.9168C76.3422 40.0913 75.2229 39.0699 74.4814 37.8526H74.0336L74.4814 41.8682V53.3132H67.1638V12.7939ZM85.5766 34.3408C86.7659 33.6272 87.7173 32.6478 88.4169 31.3886C89.1165 30.1293 89.4802 28.6742 89.4802 27.0372C89.4802 25.4002 89.1305 23.9451 88.4169 22.6859C87.7033 21.4266 86.7659 20.4472 85.5766 19.7617C84.3873 19.0761 83.1001 18.7263 81.729 18.7263C80.3858 18.7263 79.1265 19.0761 77.9373 19.7617C76.748 20.4472 75.7966 21.4266 75.097 22.6859C74.3834 23.9451 74.0336 25.4002 74.0336 27.0372C74.0336 28.6742 74.3834 30.1293 75.097 31.3886C75.8106 32.6478 76.748 33.6412 77.9373 34.3408C79.1265 35.0543 80.3998 35.4041 81.729 35.4041C83.1001 35.3901 84.3873 35.0404 85.5766 34.3408Z" fill="black"/>
<path d="M104.549 38.9715C102.758 36.8588 101.877 33.8926 101.877 30.1009V12.7935H109.194V29.2055C109.194 31.1363 109.656 32.6614 110.593 33.7527C111.517 34.844 112.748 35.4037 114.273 35.4037C116.358 35.4037 118.009 34.6342 119.24 33.1091C120.471 31.584 121.087 29.6532 121.087 27.3026V12.7935H128.391V41.2521H121.521V37.6843H121.073C120.22 39.0555 119.016 40.1468 117.477 40.9443C115.938 41.7418 114.231 42.1476 112.37 42.1476C108.942 42.1476 106.34 41.0842 104.549 38.9715Z" fill="black"/>
<path d="M135.526 1.30615H142.844V41.2658H135.526V1.30615Z" fill="black"/>
<path d="M152.176 40.0353C150.035 38.6222 148.538 36.7753 147.685 34.5087L154.219 31.6684C154.82 33.0116 155.66 34.019 156.765 34.7046C157.857 35.3901 159.13 35.7399 160.585 35.7399C161.928 35.7399 163.047 35.5301 163.929 35.0963C164.824 34.6626 165.272 33.963 165.272 32.9976C165.272 32.0742 164.866 31.3746 164.041 30.8989C163.215 30.4372 161.998 30.0174 160.361 29.6396L157.017 28.9121C154.709 28.3524 152.792 27.345 151.267 25.8759C149.742 24.4068 148.986 22.5739 148.986 20.3773C148.986 18.7403 149.476 17.2712 150.469 15.97C151.449 14.6688 152.792 13.6614 154.485 12.9618C156.178 12.2482 158.052 11.8984 160.095 11.8984C165.972 11.8984 169.903 13.9552 171.876 18.0967L165.622 20.825C164.503 18.8242 162.726 17.8168 160.263 17.8168C159.004 17.8168 157.997 18.0547 157.255 18.5164C156.513 18.9781 156.136 19.5658 156.136 20.2793C156.136 21.6225 157.395 22.6299 159.927 23.2875L164.111 24.2949C166.937 24.9945 169.064 26.0718 170.505 27.5269C171.932 28.982 172.646 30.759 172.646 32.8857C172.646 34.7185 172.114 36.3136 171.051 37.7127C169.987 39.1119 168.532 40.2032 166.699 40.9727C164.852 41.7563 162.824 42.148 160.585 42.148C157.115 42.148 154.317 41.4345 152.176 40.0353Z" fill="black"/>
<path d="M178.438 8.27427C177.515 7.35084 177.039 6.23152 177.039 4.93031C177.039 3.6291 177.501 2.52378 178.438 1.61433C179.361 0.704884 180.481 0.243164 181.782 0.243164C183.083 0.243164 184.188 0.690892 185.098 1.61433C186.007 2.52378 186.469 3.6291 186.469 4.93031C186.469 6.23152 186.007 7.35084 185.098 8.27427C184.188 9.19771 183.083 9.67342 181.782 9.67342C180.481 9.67342 179.361 9.2117 178.438 8.27427ZM178.102 12.7935H185.406V41.2522H178.102V12.7935Z" fill="black"/>
<path d="M189.869 12.7935H198.18L205.371 31.3182H205.819L213.123 12.7935H221.322L209.149 41.2521H201.888L189.869 12.7935Z" fill="black"/>
<path d="M230.165 40.2026C227.898 38.9014 226.121 37.0965 224.834 34.8158C223.547 32.5352 222.903 29.9608 222.903 27.0925C222.903 24.3782 223.533 21.8597 224.806 19.5371C226.065 17.2146 227.814 15.3677 230.053 13.9825C232.277 12.6114 234.782 11.9258 237.524 11.9258C240.462 11.9258 242.995 12.5554 245.108 13.8146C247.234 15.0739 248.843 16.8088 249.935 19.0055C251.026 21.2021 251.586 23.6367 251.586 26.309C251.586 27.1625 251.53 27.988 251.418 28.7715H230.053C230.43 31.0381 231.326 32.7591 232.753 33.9344C234.18 35.1097 235.901 35.6973 237.916 35.6973C239.595 35.6973 241.036 35.3335 242.239 34.606C243.443 33.8784 244.408 32.899 245.108 31.6818L251.026 34.578C248.13 39.6429 243.722 42.1614 237.804 42.1614C234.978 42.1474 232.431 41.4898 230.165 40.2026ZM244.562 23.5667C244.492 22.6712 244.17 21.7898 243.583 20.9223C243.009 20.0408 242.197 19.3273 241.176 18.7396C240.155 18.166 238.951 17.8722 237.58 17.8722C235.831 17.8722 234.334 18.3898 233.089 19.4112C231.844 20.4326 230.934 21.8178 230.389 23.5667H244.562Z" fill="black"/>
<path d="M265.437 1.30591H273.804L279.274 23.7343L279.946 27.9177H280.394L281.289 23.7343L288.313 1.30591H295.728L302.598 23.7343L303.494 27.8058H303.941L304.613 23.7343L310.028 1.30591H318.395L308.069 41.2656H299.982L293.168 17.1583L292.273 12.8629H291.825L290.929 17.1583L283.78 41.2656H276.028L265.437 1.30591Z" fill="black"/>
<path d="M325.363 40.2026C323.096 38.9014 321.319 37.0965 320.032 34.8158C318.745 32.5352 318.101 29.9608 318.101 27.0925C318.101 24.3782 318.731 21.8597 320.004 19.5371C321.263 17.2146 323.012 15.3677 325.251 13.9825C327.475 12.6114 329.98 11.9258 332.722 11.9258C335.66 11.9258 338.193 12.5554 340.306 13.8146C342.432 15.0739 344.041 16.8088 345.133 19.0055C346.224 21.2021 346.784 23.6367 346.784 26.309C346.784 27.1625 346.728 27.988 346.616 28.7715H325.237C325.615 31.0381 326.51 32.7591 327.937 33.9344C329.364 35.1097 331.085 35.6973 333.1 35.6973C334.779 35.6973 336.22 35.3335 337.423 34.606C338.627 33.8784 339.592 32.899 340.292 31.6818L346.21 34.578C343.314 39.6429 338.906 42.1614 332.988 42.1614C330.19 42.1474 327.629 41.4898 325.363 40.2026ZM339.76 23.5667C339.69 22.6712 339.368 21.7898 338.78 20.9223C338.207 20.0408 337.395 19.3273 336.374 18.7396C335.353 18.166 334.149 17.8722 332.778 17.8722C331.029 17.8722 329.532 18.3898 328.287 19.4112C327.042 20.4326 326.132 21.8178 325.587 23.5667H339.76Z" fill="black"/>
<path d="M363.111 40.9158C361.6 40.0903 360.481 39.0689 359.739 37.8517H359.292V41.2516H352.422V1.30591H359.739V12.2472L359.292 16.2628H359.739C360.523 15.0316 361.656 14.0102 363.139 13.1567C364.622 12.3172 366.343 11.9115 368.274 11.9115C370.835 11.9115 373.171 12.5551 375.27 13.8423C377.369 15.1295 379.02 16.9204 380.209 19.229C381.398 21.5376 382 24.14 382 27.0362C382 29.9745 381.412 32.5909 380.209 34.8715C379.02 37.1661 377.369 38.943 375.27 40.2302C373.171 41.5174 370.835 42.161 368.274 42.161C366.343 42.147 364.622 41.7413 363.111 40.9158ZM370.849 34.3398C372.038 33.6262 372.989 32.6468 373.689 31.3876C374.402 30.1284 374.752 28.6732 374.752 27.0362C374.752 25.3992 374.402 23.9441 373.689 22.6849C372.975 21.4257 372.038 20.4463 370.849 19.7607C369.659 19.0751 368.372 18.7253 367.001 18.7253C365.658 18.7253 364.399 19.0751 363.209 19.7607C362.02 20.4463 361.069 21.4257 360.369 22.6849C359.655 23.9441 359.306 25.3992 359.306 27.0362C359.306 28.6732 359.655 30.1284 360.369 31.3876C361.083 32.6468 362.02 33.6402 363.209 34.3398C364.399 35.0534 365.672 35.4032 367.001 35.4032C368.372 35.3892 369.659 35.0394 370.849 34.3398Z" fill="black"/>
</svg>
