<svg width="32" height="32" viewBox="0 0 32 32" fill="none" xmlns="http://www.w3.org/2000/svg">
<path d="M15.72 15.8399C15 15.8399 14.2667 15.7066 13.6933 15.4533L5.82666 11.9599C3.82666 11.0666 3.53333 9.86659 3.53333 9.21325C3.53333 8.55992 3.82666 7.35992 5.82666 6.46659L13.6933 2.97325C14.8533 2.45325 16.6 2.45325 17.76 2.97325L25.64 6.46659C27.6267 7.34659 27.9333 8.55992 27.9333 9.21325C27.9333 9.86659 27.64 11.0666 25.64 11.9599L17.76 15.4533C17.1733 15.7199 16.4533 15.8399 15.72 15.8399ZM15.72 4.58659C15.2667 4.58659 14.8267 4.65325 14.5067 4.79992L6.63999 8.29325C5.82666 8.66659 5.53333 9.03992 5.53333 9.21325C5.53333 9.38659 5.82666 9.77325 6.62666 10.1333L14.4933 13.6266C15.1333 13.9066 16.2933 13.9066 16.9333 13.6266L24.8133 10.1333C25.6267 9.77325 25.92 9.38659 25.92 9.21325C25.92 9.03992 25.6267 8.65325 24.8133 8.29325L16.9467 4.79992C16.6267 4.66659 16.1733 4.58659 15.72 4.58659Z" fill="#B5B5B7"/>
<path d="M16 22.7867C15.4933 22.7867 14.9867 22.6801 14.5067 22.4667L5.45333 18.4401C4.08 17.8401 3 16.1734 3 14.6667C3 14.1201 3.45333 13.6667 4 13.6667C4.54667 13.6667 5 14.1201 5 14.6667C5 15.4001 5.6 16.3201 6.26667 16.6267L15.32 20.6534C15.7467 20.8401 16.24 20.8401 16.68 20.6534L25.7333 16.6267C26.4 16.3334 27 15.4001 27 14.6667C27 14.1201 27.4533 13.6667 28 13.6667C28.5467 13.6667 29 14.1201 29 14.6667C29 16.1734 27.92 17.8401 26.5467 18.4534L17.4933 22.4801C17.0133 22.6801 16.5067 22.7867 16 22.7867Z" fill="#B5B5B7"/>
<path d="M16 29.4534C15.4933 29.4534 14.9867 29.3467 14.5067 29.1334L5.45333 25.1067C3.96 24.4401 3 22.9601 3 21.3201C3 20.7734 3.45333 20.3201 4 20.3201C4.54667 20.3201 5 20.7867 5 21.3334C5 22.1734 5.49333 22.9467 6.26667 23.2934L15.32 27.3201C15.7467 27.5067 16.24 27.5067 16.68 27.3201L25.7333 23.2934C26.5067 22.9467 27 22.1867 27 21.3334C27 20.7867 27.4533 20.3334 28 20.3334C28.5467 20.3334 29 20.7867 29 21.3334C29 22.9734 28.04 24.4534 26.5467 25.1201L17.4933 29.1467C17.0133 29.3467 16.5067 29.4534 16 29.4534Z" fill="#B5B5B7"/>
</svg>
