<svg width="32" height="32" viewBox="0 0 32 32" fill="none" xmlns="http://www.w3.org/2000/svg">
<path d="M23.4665 30.08H15.1998C14.6531 30.08 14.1998 29.6267 14.1998 29.08C14.1998 28.5334 14.6531 28.08 15.1998 28.08H23.4665C24.8931 28.08 26.2931 26.8933 26.5331 25.4799L28.3065 14.8666C28.4665 13.9066 27.9331 12.5332 27.1865 11.9332L17.9464 4.54666C16.8798 3.69332 15.1065 3.69331 14.0531 4.53331L4.81309 11.9332C4.05309 12.5465 3.5331 13.9066 3.6931 14.8666L4.06643 17.1199C4.15976 17.6666 3.78644 18.1865 3.23977 18.2665C2.6931 18.3732 2.18646 17.9866 2.09312 17.4399L1.71979 15.2C1.43979 13.5466 2.2398 11.4267 3.5598 10.3733L12.7998 2.97325C14.5865 1.53325 17.3998 1.5466 19.1998 2.9866L28.4398 10.3733C29.7464 11.4267 30.5464 13.5466 30.2798 15.2L28.5065 25.8133C28.1065 28.1733 25.8531 30.08 23.4665 30.08Z" fill="#B5B5B7"/>
<path d="M6.66692 30.3333C6.12025 30.3333 5.68025 29.8933 5.66692 29.3599C5.62692 27.5599 4.44027 26.3733 2.64027 26.3333C2.0936 26.3199 1.65359 25.8666 1.66692 25.3066C1.68025 24.7599 2.12025 24.3333 2.66692 24.3333C2.68025 24.3333 2.68024 24.3333 2.69357 24.3333C5.56024 24.3999 7.61359 26.4399 7.66692 29.3066C7.68025 29.8532 7.24024 30.3199 6.69357 30.3333C6.68024 30.3333 6.68025 30.3333 6.66692 30.3333Z" fill="#B5B5B7"/>
<path d="M10.6669 30.3333C10.1202 30.3333 9.66691 29.8933 9.66691 29.3466C9.65358 28.4666 9.5069 27.6266 9.24024 26.8399C8.56024 24.8933 7.10691 23.4532 5.16024 22.7598C4.37357 22.4798 3.53357 22.3333 2.65357 22.3333C2.1069 22.3333 1.65358 21.8799 1.66691 21.3199C1.66691 20.7732 2.12025 20.3333 2.66691 20.3333H2.68026C3.78693 20.3466 4.84024 20.5333 5.82691 20.88C8.34691 21.7733 10.2269 23.6533 11.1202 26.1733C11.4669 27.1599 11.6536 28.2266 11.6669 29.3199C11.6669 29.8799 11.2269 30.3333 10.6669 30.3333C10.6802 30.3333 10.6669 30.3333 10.6669 30.3333Z" fill="#B5B5B7"/>
<path d="M2.66671 30.6667C1.92004 30.6667 1.33337 30.0667 1.33337 29.3333C1.33337 28.6 1.93337 28 2.66671 28C3.40004 28 4.00004 28.6 4.00004 29.3333C4.00004 30.0667 3.41337 30.6667 2.66671 30.6667Z" fill="#B5B5B7"/>
</svg>
